<?xml version="1.0" encoding="UTF-8" standalone="no"?>
<!-- Created with Inkscape (http://www.inkscape.org/) -->

<svg
   xmlns:dc="http://purl.org/dc/elements/1.1/"
   xmlns:cc="http://creativecommons.org/ns#"
   xmlns:rdf="http://www.w3.org/1999/02/22-rdf-syntax-ns#"
   xmlns:svg="http://www.w3.org/2000/svg"
   xmlns="http://www.w3.org/2000/svg"
   xmlns:sodipodi="http://sodipodi.sourceforge.net/DTD/sodipodi-0.dtd"
   xmlns:inkscape="http://www.inkscape.org/namespaces/inkscape"
   width="32mm"
   height="55mm"
   viewBox="0 0 32 55"
   version="1.1"
   id="svg8"
   sodipodi:docname="rulehero.svg"
   inkscape:version="0.92.4 (5da689c313, 2019-01-14)">
  <defs
     id="defs2" />
  <sodipodi:namedview
     id="base"
     pagecolor="#ffffff"
     bordercolor="#666666"
     borderopacity="1.0"
     inkscape:pageopacity="0.0"
     inkscape:pageshadow="2"
     inkscape:zoom="1.4"
     inkscape:cx="69.133039"
     inkscape:cy="69.746563"
     inkscape:document-units="mm"
     inkscape:current-layer="svgg"
     showgrid="false"
     inkscape:window-width="1920"
     inkscape:window-height="1027"
     inkscape:window-x="1912"
     inkscape:window-y="-8"
     inkscape:window-maximized="1" />
  <metadata
     id="metadata5">
    <rdf:RDF>
      <cc:Work
         rdf:about="">
        <dc:format>image/svg+xml</dc:format>
        <dc:type
           rdf:resource="http://purl.org/dc/dcmitype/StillImage" />
        <dc:title></dc:title>
      </cc:Work>
    </rdf:RDF>
  </metadata>
  <g
     inkscape:label="Layer 1"
     inkscape:groupmode="layer"
     id="layer1"
     transform="translate(-87.176034,-104.67347)">
    <g
       id="svgg"
       transform="matrix(0.26458333,0,0,0.26458333,52.836827,109.61073)"
       style="fill:#0088aa">
      <path
         d="m 217.34817,-13.91112 c -2.32455,1.037891 -2.2725,0.913895 -14.61241,34.539026 -10.44169,28.450976 -12.92008,34.833711 -21.44902,55.235655 -11.86535,28.380559 -8.81673,20.434089 -24.10345,62.835389 -12.07431,33.49271 -13.0173,36.26425 -13.02036,38.27039 -0.0115,7.89595 10.41032,11.28288 15.11911,4.91392 0.44087,-0.59625 6.53198,-17.03721 13.83321,-37.33812 7.17493,-19.94959 13.20711,-36.3255 13.40459,-36.39209 0.19824,-0.0658 1.55607,0.53503 3.01723,1.33564 l 2.65826,1.45428 -6.51821,11.13285 c -7.7819,13.29055 -7.74746,13.22013 -7.75664,15.80874 -0.0268,7.26371 8.56185,11.10071 13.92506,6.222 1.25221,-1.1397 19.43523,-31.63354 21.3809,-35.85783 1.83086,-3.97552 -0.24722,-9.34639 -4.26944,-11.03182 l -1.07004,-0.44777 0.61615,-1.415232 c 0.33908,-0.777659 1.67012,-3.58594 2.95831,-6.240376 l 2.34291,-4.825126 -0.0582,6.988941 c -0.0666,7.928093 0.0796,8.444743 2.78456,9.824003 3.48414,1.77804 3.97859,1.45887 17.78961,-11.445905 14.06361,-13.142055 14.83972,-14.259549 12.39655,-17.850078 -3.1642,-4.648319 -5.78649,-3.866836 -14.50678,4.324555 -3.54001,3.324932 -6.51668,5.965587 -6.61466,5.867617 -0.098,-0.09797 0.0153,-4.639902 0.25106,-10.093432 0.54191,-12.509824 0.0406,-13.961805 -4.94454,-14.325373 -1.5178,-0.110985 -16.54352,-5.259881 -17.32577,-5.937267 -0.17604,-0.152319 2.71491,-8.119449 2.94606,-8.119449 0.10257,0 0.55492,0.776889 1.00575,1.726762 5.44357,11.465811 23.10306,9.554587 26.46473,-2.864922 3.02643,-11.181077 -8.793,-21.530156 -19.27067,-16.873417 -0.89552,0.398015 -1.68925,0.662079 -1.76427,0.58707 -0.075,-0.07501 2.64143,-7.718373 6.03678,-16.985165 3.39841,-9.27368183 6.17378,-17.3472028 6.17378,-17.9564678 0,-3.7566212 -4.38732,-6.5993482 -7.82017,-5.0669982 m -33.64886,68.314944 c -13.95339,15.702337 -31.61823,35.121502 -43.82725,48.178596 -3.40989,3.6464 -6.14776,6.68124 -6.085,6.74401 0.30081,0.3008 28.30402,4.72409 28.49997,4.50213 0.34902,-0.39496 26.61858,-64.749678 26.48464,-64.88286 -0.0643,-0.06506 -2.34674,2.391133 -5.07236,5.458124"
         id="path0"
         inkscape:connector-curvature="0"
         style="fill:#ffffff;fill-rule:evenodd;stroke:none;stroke-width:0.7654078" />
    </g>
  </g>
</svg>
